<svg width="439" height="439" viewBox="0 0 439 439" fill="none" xmlns="http://www.w3.org/2000/svg">
<circle cx="219.232" cy="219.232" r="215.232" stroke="#A2854D" stroke-width="8"/>
<circle cx="219.232" cy="219.232" r="215.232" stroke="#A2854D" stroke-width="8"/>
<circle cx="219.232" cy="219.232" r="215.232" stroke="#A2854D" stroke-width="8"/>
<circle cx="219.232" cy="219.231" r="86.6689" stroke="#A2854D" stroke-width="8"/>
<circle cx="219.232" cy="219.231" r="86.6689" stroke="#A2854D" stroke-width="8"/>
<circle cx="219.232" cy="219.231" r="86.6689" stroke="#A2854D" stroke-width="8"/>
<circle cx="219.232" cy="219.231" r="86.6689" stroke="#A2854D" stroke-width="8"/>
<circle cx="219.232" cy="219.231" r="86.6689" stroke="#A2854D" stroke-width="8"/>
<circle cx="219.232" cy="219.231" r="86.6689" stroke="#A2854D" stroke-width="8"/>
<path d="M168.217 349.973C128.173 334.336 97.0761 300.833 84.7236 259.264" stroke="#A2854D" stroke-width="8" stroke-linecap="round"/>
<path d="M168.217 349.973C128.173 334.336 97.0761 300.833 84.7236 259.264" stroke="#A2854D" stroke-width="8" stroke-linecap="round"/>
<path d="M168.217 349.973C128.173 334.336 97.0761 300.833 84.7236 259.264" stroke="#A2854D" stroke-width="8" stroke-linecap="round"/>
<path d="M267.573 87.4824C309.639 102.921 342.257 137.931 354.396 181.478" stroke="#A2854D" stroke-width="8" stroke-linecap="round"/>
<path d="M267.573 87.4824C309.639 102.921 342.257 137.931 354.396 181.478" stroke="#A2854D" stroke-width="8" stroke-linecap="round"/>
<path d="M267.573 87.4824C309.639 102.921 342.257 137.931 354.396 181.478" stroke="#A2854D" stroke-width="8" stroke-linecap="round"/>
<path d="M159.045 391.317C104.571 372.266 61.8998 328.08 44.9326 272.662" stroke="#A2854D" stroke-width="8" stroke-linecap="round"/>
<path d="M159.045 391.317C104.571 372.266 61.8998 328.08 44.9326 272.662" stroke="#A2854D" stroke-width="8" stroke-linecap="round"/>
<path d="M159.045 391.317C104.571 372.266 61.8998 328.08 44.9326 272.662" stroke="#A2854D" stroke-width="8" stroke-linecap="round"/>
<path d="M277.584 46.5176C334.886 65.87 379.424 112.939 395.248 171.774" stroke="#A2854D" stroke-width="8" stroke-linecap="round"/>
<path d="M277.584 46.5176C334.886 65.87 379.424 112.939 395.248 171.774" stroke="#A2854D" stroke-width="8" stroke-linecap="round"/>
<path d="M277.584 46.5176C334.886 65.87 379.424 112.939 395.248 171.774" stroke="#A2854D" stroke-width="8" stroke-linecap="round"/>
<circle cx="219.232" cy="219.232" r="16.1211" stroke="#A2854D" stroke-width="8"/>
<circle cx="219.232" cy="219.232" r="16.1211" stroke="#A2854D" stroke-width="8"/>
<circle cx="219.232" cy="219.232" r="16.1211" stroke="#A2854D" stroke-width="8"/>
</svg>
